# xmcd CD database file
# Copyright (C) 1993-1998 Ti Kan
#
# Track frame offsets:
# 150
# 12812
# 26692
# 40306
# 52521
# 71468
# 88211
# 111484
# 122939
# 135340
# 148715
# 171861
# 188742
#
# Disc length: 2933 seconds
# Revision: 1
# Processed by: cddbd v1.4b41PL1 Copyright (c) Steve Scherf et al.
# Submitted via: CDSpectrumPro v3.3.330
#
DISCID=af0b730d
DTITLE=Karl Conrad - Late Bloomer
DYEAR=1900
DGENRE=
TTITLE0=Coal Tatoo
TTITLE1=Good Morning Girl
TTITLE2=Don't Feel Like Crying
TTITLE3=Been Down Long Enough
TTITLE4=Tangled Web
TTITLE5=Pilot Light
TTITLE6=Catch The Wind
TTITLE7=Dog House Blues
TTITLE8=Glass Bar
TTITLE9=Max The Dog
TTITLE10=Motherless Child
TTITLE11=King Of Beers
TTITLE12=Dark Out (Tonight)
EXTD=
EXTT0=
EXTT1=
EXTT2=
EXTT3=
EXTT4=
EXTT5=
EXTT6=
EXTT7=
EXTT8=
EXTT9=
EXTT10=
EXTT11=
EXTT12=
PLAYORDER=
